<svg width="1308" height="1392" viewBox="0 0 1308 1392" fill="none" xmlns="http://www.w3.org/2000/svg">
<path d="M192.541 24.8029C215.128 33.5857 248.877 71.7276 300.956 66.9604C353.035 62.1931 389.878 -7.76846 442.519 1.91989C495.161 11.6082 502.169 96.9524 553.633 113.464C605.098 129.976 637.266 69.4125 689.549 81.1776C741.832 92.9428 751.643 162.029 804.592 169.937C857.54 177.845 890.444 113.009 943.699 119.137C996.955 125.265 1007.22 191.741 1060.22 199.352C1113.21 206.964 1146.68 138.864 1198.1 155.673C1249.51 172.482 1284.31 254.126 1307 280.034" stroke="white" stroke-opacity="0.1" stroke-width="2" stroke-linecap="round"/>
<path d="M1.00082 1135.58C23.5872 1144.36 57.3365 1182.5 109.415 1177.74C161.494 1172.97 198.338 1103.01 250.979 1112.7C303.62 1122.38 310.628 1207.73 362.093 1224.24C413.557 1240.75 445.725 1180.19 498.008 1191.95C550.291 1203.72 560.103 1272.81 613.051 1280.71C665.999 1288.62 698.904 1223.79 752.159 1229.91C805.414 1236.04 815.676 1302.52 868.675 1310.13C921.674 1317.74 955.142 1249.64 1006.56 1266.45C1057.97 1283.26 1092.77 1364.9 1115.46 1390.81" stroke="white" stroke-opacity="0.1" stroke-width="2" stroke-linecap="round"/>
<path d="M8.36775 1092.86C30.9541 1101.64 64.7034 1139.78 116.782 1135.01C168.861 1130.25 205.705 1060.29 258.346 1069.97C310.987 1079.66 317.995 1165.01 369.46 1181.52C420.924 1198.03 453.092 1137.47 505.375 1149.23C557.658 1161 567.47 1230.08 620.418 1237.99C673.366 1245.9 706.271 1181.06 759.526 1187.19C812.781 1193.32 823.043 1259.8 876.042 1267.41C929.041 1275.02 962.509 1206.92 1013.92 1223.73C1065.34 1240.54 1100.14 1322.18 1122.83 1348.09" stroke="white" stroke-opacity="0.1" stroke-width="2" stroke-linecap="round"/>
<path d="M15.7347 1050.14C38.321 1058.92 72.0704 1097.06 124.149 1092.29C176.228 1087.53 213.072 1017.56 265.713 1027.25C318.354 1036.94 325.362 1122.28 376.826 1138.8C428.291 1155.31 460.459 1094.74 512.742 1106.51C565.025 1118.28 574.837 1187.36 627.785 1195.27C680.733 1203.18 713.638 1138.34 766.893 1144.47C820.148 1150.6 830.41 1217.07 883.409 1224.68C936.408 1232.3 969.876 1164.2 1021.29 1181.01C1072.7 1197.81 1107.5 1279.46 1130.19 1305.37" stroke="white" stroke-opacity="0.1" stroke-width="2" stroke-linecap="round"/>
<path d="M23.1016 1007.41C45.6879 1016.2 79.4373 1054.34 131.516 1049.57C183.595 1044.8 220.439 974.842 273.08 984.53C325.721 994.218 332.729 1079.56 384.193 1096.07C435.658 1112.59 467.826 1052.02 520.109 1063.79C572.392 1075.55 582.204 1144.64 635.152 1152.55C688.1 1160.46 721.005 1095.62 774.26 1101.75C827.515 1107.88 837.777 1174.35 890.776 1181.96C943.775 1189.57 977.243 1121.47 1028.66 1138.28C1080.07 1155.09 1114.87 1236.74 1137.56 1262.64" stroke="white" stroke-opacity="0.1" stroke-width="2" stroke-linecap="round"/>
<path d="M30.4686 964.691C53.0549 973.474 86.8043 1011.62 138.883 1006.85C190.962 1002.08 227.806 932.12 280.447 941.808C333.088 951.496 340.096 1036.84 391.56 1053.35C443.025 1069.86 475.193 1009.3 527.476 1021.07C579.759 1032.83 589.571 1101.92 642.519 1109.83C695.467 1117.73 728.372 1052.9 781.627 1059.03C834.882 1065.15 845.144 1131.63 898.143 1139.24C951.142 1146.85 984.61 1078.75 1036.02 1095.56C1087.44 1112.37 1122.24 1194.01 1144.93 1219.92" stroke="white" stroke-opacity="0.1" stroke-width="2" stroke-linecap="round"/>
<path d="M37.8355 921.969C60.4219 930.752 94.1712 968.894 146.25 964.126C198.329 959.359 235.173 889.397 287.814 899.086C340.455 908.774 347.463 994.118 398.927 1010.63C450.392 1027.14 482.56 966.578 534.843 978.344C587.126 990.109 596.938 1059.19 649.886 1067.1C702.834 1075.01 735.739 1010.18 788.994 1016.3C842.249 1022.43 852.511 1088.91 905.51 1096.52C958.509 1104.13 991.977 1036.03 1043.39 1052.84C1094.8 1069.65 1129.61 1151.29 1152.29 1177.2" stroke="white" stroke-opacity="0.1" stroke-width="2" stroke-linecap="round"/>
<path d="M45.2024 879.247C67.7888 888.029 101.538 926.171 153.617 921.404C205.696 916.637 242.539 846.675 295.181 856.364C347.822 866.052 354.83 951.396 406.294 967.908C457.759 984.42 489.927 923.856 542.21 935.621C594.493 947.386 604.305 1016.47 657.253 1024.38C710.201 1032.29 743.106 967.453 796.361 973.581C849.616 979.709 859.878 1046.18 912.877 1053.8C965.876 1061.41 999.344 993.308 1050.76 1010.12C1102.17 1026.93 1136.97 1108.57 1159.66 1134.48" stroke="white" stroke-opacity="0.1" stroke-width="2" stroke-linecap="round"/>
<path d="M52.5693 836.524C75.1557 845.307 108.905 883.449 160.984 878.682C213.063 873.915 249.906 803.953 302.548 813.641C355.189 823.33 362.197 908.674 413.661 925.186C465.126 941.698 497.294 881.134 549.577 892.899C601.86 904.664 611.672 973.75 664.62 981.659C717.568 989.567 750.473 924.731 803.728 930.859C856.983 936.987 867.244 1003.46 920.244 1011.07C973.243 1018.69 1006.71 950.586 1058.12 967.394C1109.54 984.203 1144.34 1065.85 1167.03 1091.76" stroke="white" stroke-opacity="0.1" stroke-width="2" stroke-linecap="round"/>
<path d="M59.9363 793.802C82.5226 802.585 116.272 840.727 168.351 835.96C220.43 831.192 257.273 761.231 309.914 770.919C362.556 780.608 369.564 865.952 421.028 882.464C472.493 898.976 504.661 838.412 556.944 850.177C609.227 861.942 619.038 931.028 671.987 938.936C724.935 946.845 757.839 882.008 811.095 888.137C864.35 894.265 874.611 960.74 927.611 968.352C980.61 975.963 1014.08 907.863 1065.49 924.672C1116.9 941.481 1151.71 1023.12 1174.39 1049.03" stroke="white" stroke-opacity="0.1" stroke-width="2" stroke-linecap="round"/>
<path d="M67.3033 751.08C89.8897 759.863 123.639 798.005 175.718 793.237C227.797 788.47 264.64 718.509 317.281 728.197C369.923 737.885 376.931 823.23 428.395 839.742C479.86 856.254 512.028 795.69 564.311 807.455C616.594 819.22 626.405 888.306 679.354 896.214C732.302 904.122 765.207 839.286 818.462 845.414C871.717 851.543 881.978 918.018 934.978 925.629C987.977 933.241 1021.44 865.141 1072.86 881.95C1124.27 898.759 1159.07 980.403 1181.76 1006.31" stroke="white" stroke-opacity="0.1" stroke-width="2" stroke-linecap="round"/>
<path d="M74.6702 708.358C97.2566 717.141 131.006 755.283 183.085 750.515C235.163 745.748 272.007 675.786 324.648 685.475C377.29 695.163 384.298 780.507 435.762 797.019C487.227 813.531 519.395 752.967 571.678 764.733C623.961 776.498 633.772 845.584 686.72 853.492C739.669 861.4 772.573 796.564 825.828 802.692C879.083 808.82 889.345 875.296 942.345 882.907C995.344 890.519 1028.81 822.419 1080.22 839.228C1131.64 856.037 1166.44 937.68 1189.13 963.589" stroke="white" stroke-opacity="0.1" stroke-width="2" stroke-linecap="round"/>
<path d="M82.0372 665.636C104.624 674.418 138.373 712.56 190.452 707.793C242.53 703.026 279.374 633.064 332.015 642.753C384.656 652.441 391.665 737.785 443.129 754.297C494.593 770.809 526.762 710.245 579.045 722.01C631.328 733.776 641.139 802.862 694.087 810.77C747.035 818.678 779.94 753.842 833.195 759.97C886.45 766.098 896.712 832.573 949.712 840.185C1002.71 847.797 1036.18 779.697 1087.59 796.506C1139 813.314 1173.81 894.958 1196.5 920.867" stroke="white" stroke-opacity="0.1" stroke-width="2" stroke-linecap="round"/>
<path d="M89.4041 622.913C111.99 631.696 145.74 669.838 197.819 665.071C249.897 660.304 286.741 590.342 339.382 600.03C392.023 609.719 399.031 695.063 450.496 711.575C501.96 728.087 534.129 667.523 586.412 679.288C638.695 691.053 648.506 760.139 701.454 768.048C754.402 775.956 787.307 711.12 840.562 717.248C893.817 723.376 904.079 789.851 957.078 797.463C1010.08 805.074 1043.55 736.975 1094.96 753.783C1146.37 770.592 1181.17 852.236 1203.86 878.145" stroke="white" stroke-opacity="0.1" stroke-width="2" stroke-linecap="round"/>
<path d="M96.771 580.191C119.357 588.974 153.107 627.116 205.185 622.349C257.264 617.581 294.108 547.62 346.749 557.308C399.39 566.997 406.398 652.341 457.863 668.853C509.327 685.365 541.496 624.801 593.779 636.566C646.062 648.331 655.873 717.417 708.821 725.325C761.769 733.234 794.674 668.397 847.929 674.526C901.184 680.654 911.446 747.129 964.445 754.741C1017.44 762.352 1050.91 694.253 1102.33 711.061C1153.74 727.87 1188.54 809.514 1211.23 835.422" stroke="white" stroke-opacity="0.1" stroke-width="2" stroke-linecap="round"/>
<path d="M104.138 537.469C126.724 546.252 160.474 584.394 212.552 579.627C264.631 574.859 301.475 504.898 354.116 514.586C406.757 524.274 413.765 609.619 465.23 626.131C516.694 642.643 548.862 582.079 601.145 593.844C653.428 605.609 663.24 674.695 716.188 682.603C769.136 690.512 802.041 625.675 855.296 631.804C908.551 637.932 918.813 704.407 971.812 712.018C1024.81 719.63 1058.28 651.53 1109.69 668.339C1161.11 685.148 1195.91 766.792 1218.6 792.7" stroke="white" stroke-opacity="0.1" stroke-width="2" stroke-linecap="round"/>
<path d="M111.505 494.747C134.091 503.53 167.841 541.672 219.919 536.904C271.998 532.137 308.842 462.176 361.483 471.864C414.124 481.552 421.132 566.896 472.597 583.408C524.061 599.92 556.229 539.357 608.512 551.122C660.795 562.887 670.607 631.973 723.555 639.881C776.503 647.789 809.408 582.953 862.663 589.081C915.918 595.209 926.18 661.685 979.179 669.296C1032.18 676.908 1065.65 608.808 1117.06 625.617C1168.47 642.426 1203.27 724.069 1225.96 749.978" stroke="white" stroke-opacity="0.1" stroke-width="2" stroke-linecap="round"/>
<path d="M118.872 452.025C141.458 460.808 175.208 498.949 227.286 494.182C279.365 489.415 316.209 419.453 368.85 429.142C421.491 438.83 428.499 524.174 479.964 540.686C531.428 557.198 563.596 496.634 615.879 508.399C668.162 520.165 677.974 589.251 730.922 597.159C783.87 605.067 816.775 540.231 870.03 546.359C923.285 552.487 933.547 618.963 986.546 626.574C1039.55 634.186 1073.01 566.086 1124.43 582.895C1175.84 599.703 1210.64 681.347 1233.33 707.256" stroke="white" stroke-opacity="0.1" stroke-width="2" stroke-linecap="round"/>
<path d="M126.239 409.302C148.825 418.085 182.575 456.227 234.653 451.46C286.732 446.693 323.576 376.731 376.217 386.419C428.858 396.108 435.866 481.452 487.331 497.964C538.795 514.476 570.963 453.912 623.246 465.677C675.529 477.442 685.341 546.528 738.289 554.437C791.237 562.345 824.142 497.509 877.397 503.637C930.652 509.765 940.914 576.24 993.913 583.852C1046.91 591.463 1080.38 523.364 1131.79 540.172C1183.21 556.981 1218.01 638.625 1240.7 664.534" stroke="white" stroke-opacity="0.1" stroke-width="2" stroke-linecap="round"/>
<path d="M133.606 366.58C156.192 375.363 189.941 413.505 242.02 408.738C294.099 403.971 330.943 334.009 383.584 343.697C436.225 353.386 443.233 438.73 494.698 455.242C546.162 471.754 578.33 411.19 630.613 422.955C682.896 434.72 692.708 503.806 745.656 511.714C798.604 519.623 831.509 454.787 884.764 460.915C938.019 467.043 948.281 533.518 1001.28 541.13C1054.28 548.741 1087.75 480.642 1139.16 497.45C1190.57 514.259 1225.38 595.903 1248.06 621.812" stroke="white" stroke-opacity="0.1" stroke-width="2" stroke-linecap="round"/>
<path d="M140.973 323.858C163.559 332.641 197.308 370.783 249.387 366.016C301.466 361.248 338.31 291.287 390.951 300.975C443.592 310.663 450.6 396.008 502.064 412.52C553.529 429.032 585.697 368.468 637.98 380.233C690.263 391.998 700.075 461.084 753.023 468.992C805.971 476.901 838.876 412.064 892.131 418.193C945.386 424.321 955.648 490.796 1008.65 498.407C1061.65 506.019 1095.11 437.919 1146.53 454.728C1197.94 471.537 1232.74 553.181 1255.43 579.089" stroke="white" stroke-opacity="0.1" stroke-width="2" stroke-linecap="round"/>
<path d="M148.34 281.136C170.926 289.919 204.675 328.061 256.754 323.293C308.833 318.526 345.677 248.565 398.318 258.253C450.959 267.941 457.967 353.285 509.431 369.798C560.896 386.31 593.064 325.746 645.347 337.511C697.63 349.276 707.442 418.362 760.39 426.27C813.338 434.178 846.243 369.342 899.498 375.47C952.753 381.599 963.015 448.074 1016.01 455.685C1069.01 463.297 1102.48 395.197 1153.89 412.006C1205.31 428.815 1240.11 510.459 1262.8 536.367" stroke="white" stroke-opacity="0.1" stroke-width="2" stroke-linecap="round"/>
<path d="M155.707 238.414C178.293 247.197 212.042 285.339 264.121 280.571C316.2 275.804 353.044 205.842 405.685 215.531C458.326 225.219 465.334 310.563 516.798 327.075C568.263 343.587 600.431 283.023 652.714 294.789C704.997 306.554 714.809 375.64 767.757 383.548C820.705 391.456 853.61 326.62 906.865 332.748C960.12 338.876 970.382 405.352 1023.38 412.963C1076.38 420.575 1109.85 352.475 1161.26 369.284C1212.67 386.093 1247.48 467.736 1270.16 493.645" stroke="white" stroke-opacity="0.1" stroke-width="2" stroke-linecap="round"/>
<path d="M163.073 195.692C185.66 204.474 219.409 242.616 271.488 237.849C323.567 233.082 360.41 163.12 413.052 172.809C465.693 182.497 472.701 267.841 524.165 284.353C575.63 300.865 607.798 240.301 660.081 252.066C712.364 263.832 722.176 332.918 775.124 340.826C828.072 348.734 860.977 283.898 914.232 290.026C967.487 296.154 977.749 362.629 1030.75 370.241C1083.75 377.853 1117.21 309.753 1168.63 326.562C1220.04 343.37 1254.84 425.014 1277.53 450.923" stroke="white" stroke-opacity="0.1" stroke-width="2" stroke-linecap="round"/>
<path d="M170.44 152.969C193.027 161.752 226.776 199.894 278.855 195.127C330.934 190.36 367.778 120.398 420.419 130.086C473.06 139.775 480.068 225.119 531.532 241.631C582.997 258.143 615.165 197.579 667.448 209.344C719.731 221.109 729.543 290.195 782.491 298.104C835.439 306.012 868.344 241.176 921.599 247.304C974.854 253.432 985.116 319.907 1038.11 327.519C1091.11 335.13 1124.58 267.031 1176 283.839C1227.41 300.648 1262.21 382.292 1284.9 408.201" stroke="white" stroke-opacity="0.1" stroke-width="2" stroke-linecap="round"/>
<path d="M177.807 110.247C200.394 119.03 234.143 157.172 286.222 152.405C338.301 147.637 375.144 77.6759 427.786 87.3642C480.427 97.0526 487.435 182.397 538.899 198.909C590.364 215.421 622.532 154.857 674.815 166.622C727.098 178.387 736.91 247.473 789.858 255.381C842.806 263.29 875.711 198.453 928.966 204.582C982.221 210.71 992.483 277.185 1045.48 284.797C1098.48 292.408 1131.95 224.308 1183.36 241.117C1234.78 257.926 1269.58 339.57 1292.27 365.478" stroke="white" stroke-opacity="0.1" stroke-width="2" stroke-linecap="round"/>
<path d="M185.174 67.5251C207.761 76.3079 241.51 114.45 293.589 109.683C345.668 104.915 382.511 34.9538 435.152 44.6421C487.794 54.3305 494.802 139.675 546.266 156.187C597.731 172.699 629.899 112.135 682.182 123.9C734.465 135.665 744.277 204.751 797.225 212.659C850.173 220.568 883.078 155.731 936.333 161.86C989.588 167.988 999.849 234.463 1052.85 242.074C1105.85 249.686 1139.32 181.586 1190.73 198.395C1242.14 215.204 1276.94 296.848 1299.63 322.756" stroke="white" stroke-opacity="0.1" stroke-width="2" stroke-linecap="round"/>
</svg>
